<?xml version="1.0" encoding="UTF-8"?> <!-- Generator: Adobe Illustrator 24.0.3, SVG Export Plug-In . SVG Version: 6.00 Build 0) --> <svg xmlns="http://www.w3.org/2000/svg" xmlns:xlink="http://www.w3.org/1999/xlink" version="1.1" id="Layer_1" x="0px" y="0px" viewBox="0 0 876.13 580.72" style="enable-background:new 0 0 876.13 580.72;" xml:space="preserve"> <g> <g> <path d="M15.29,182.71c0-8.23,1.44-15.51,4.31-21.83c2.87-6.32,6.7-11.58,11.49-15.8c4.6-4.02,9.81-7.08,15.66-9.19 c5.84-2.11,11.73-3.16,17.67-3.16c5.93,0,11.82,1.05,17.67,3.16c5.84,2.11,11.15,5.17,15.94,9.19c4.6,4.21,8.33,9.48,11.2,15.8 c2.87,6.32,4.31,13.6,4.31,21.83v10.34h-29.3v-10.34c0-7.08-1.97-12.3-5.89-15.66c-3.93-3.35-8.57-5.03-13.93-5.03 c-5.36,0-10.01,1.68-13.93,5.03c-3.93,3.35-5.89,8.57-5.89,15.66v108.01c0,7.09,1.96,12.31,5.89,15.66 c3.92,3.35,8.57,5.03,13.93,5.03c5.36,0,10.01-1.68,13.93-5.03c3.92-3.35,5.89-8.57,5.89-15.66v-38.49H60.97v-25.85h52.57v64.34 c0,8.62-1.44,15.99-4.31,22.12c-2.87,6.13-6.61,11.2-11.2,15.23c-4.79,4.22-10.1,7.38-15.94,9.48c-5.84,2.1-11.73,3.16-17.67,3.16 c-5.94,0-11.83-1.06-17.67-3.16c-5.84-2.1-11.06-5.26-15.66-9.48c-4.79-4.02-8.62-9.09-11.49-15.23 c-2.87-6.13-4.31-13.5-4.31-22.12V182.71z"></path> <path d="M137.66,338.98l45.67-204.53h24.42l45.67,204.53h-29.3l-8.62-43.95h-39.93l-8.62,43.95H137.66z M210.05,267.45 l-14.36-74.11h-0.57l-14.36,74.11H210.05z"></path> <path d="M474.04,338.98V134.45h87.33v27.58h-58.02v60.04h50.56v27.58h-50.56v60.04h58.02v29.3H474.04z"></path> <path d="M591.81,338.98V134.45h47.11c34.47,0,51.71,20.01,51.71,60.04c0,12.06-1.87,22.31-5.6,30.74 c-3.73,8.43-10.3,15.23-19.68,20.4l31.6,93.36h-31.02l-27.29-87.33h-17.52v87.33H591.81z M621.11,162.03v63.77h16.66 c5.17,0,9.29-0.72,12.35-2.15c3.06-1.44,5.46-3.49,7.18-6.18c1.53-2.68,2.59-5.98,3.16-9.91c0.57-3.92,0.86-8.47,0.86-13.64 c0-5.17-0.29-9.72-0.86-13.65c-0.57-3.92-1.72-7.33-3.45-10.2c-3.64-5.36-10.54-8.04-20.68-8.04H621.11z"></path> <path d="M747.79,338.98v-86.46l-40.22-118.07h31.02l23.56,81.29h0.57l23.56-81.29h31.02l-40.22,118.07v86.46H747.79z"></path> <path d="M24.85,469.06v-77.18H57.8v10.41h-21.9v22.66h19.08v10.41H35.91V458h21.9v11.06H24.85z"></path> <path d="M120.24,469.06l15.61-40.43l-14.42-36.75h11.71l8.35,22.87l8.46-22.87h11.71l-14.74,36.75l15.94,40.43h-11.71l-9.65-26.02 l-9.54,26.02H120.24z"></path> <path d="M228.53,469.06v-77.18h16.59c3.04,0,5.71,0.4,8.02,1.19c2.31,0.8,4.41,2.2,6.29,4.23c1.88,2.02,3.18,4.39,3.9,7.1 c0.72,2.71,1.09,6.38,1.09,11c0,3.47-0.2,6.39-0.6,8.78c-0.4,2.38-1.25,4.63-2.55,6.72c-1.52,2.53-3.54,4.5-6.07,5.91 c-2.53,1.41-5.85,2.11-9.97,2.11h-5.64v30.14H228.53z M239.59,402.28v26.23h5.31c2.24,0,3.97-0.33,5.2-0.98 c1.23-0.65,2.13-1.55,2.71-2.71c0.58-1.09,0.92-2.42,1.03-4.01c0.11-1.59,0.16-3.36,0.16-5.31c0-1.81-0.04-3.53-0.11-5.15 c-0.07-1.62-0.4-3.05-0.98-4.28c-0.58-1.23-1.45-2.17-2.6-2.82c-1.16-0.65-2.82-0.98-4.99-0.98H239.59z"></path> <path d="M333.35,469.06v-77.18h16.59c3.04,0,5.71,0.4,8.02,1.19c2.31,0.8,4.41,2.2,6.29,4.23c1.88,2.02,3.18,4.39,3.9,7.1 c0.72,2.71,1.09,6.38,1.09,11c0,3.47-0.2,6.39-0.6,8.78c-0.4,2.38-1.25,4.63-2.55,6.72c-1.52,2.53-3.54,4.5-6.07,5.91 c-2.53,1.41-5.85,2.11-9.97,2.11h-5.64v30.14H333.35z M344.41,402.28v26.23h5.31c2.24,0,3.97-0.33,5.2-0.98 c1.23-0.65,2.13-1.55,2.71-2.71c0.58-1.09,0.92-2.42,1.03-4.01c0.11-1.59,0.16-3.36,0.16-5.31c0-1.81-0.04-3.53-0.11-5.15 c-0.07-1.62-0.4-3.05-0.98-4.28c-0.58-1.23-1.45-2.17-2.6-2.82c-1.16-0.65-2.82-0.98-4.99-0.98H344.41z"></path> <path d="M438.18,469.06v-77.18h17.78c13,0,19.51,7.55,19.51,22.66c0,4.55-0.7,8.42-2.11,11.6c-1.41,3.18-3.89,5.74-7.43,7.7 l11.92,35.23h-11.7l-10.3-32.95h-6.61v32.95H438.18z M449.24,402.28v24.07h6.29c1.95,0,3.5-0.27,4.66-0.82 c1.15-0.54,2.06-1.32,2.71-2.33c0.58-1.01,0.98-2.26,1.2-3.74c0.21-1.48,0.32-3.2,0.32-5.15c0-1.95-0.11-3.67-0.32-5.15 c-0.22-1.48-0.65-2.76-1.3-3.85c-1.38-2.02-3.98-3.04-7.81-3.04H449.24z"></path> <path d="M545.06,469.06v-77.18h32.95v10.41h-21.9v22.66h19.08v10.41h-19.08V458h21.9v11.06H545.06z"></path> <path d="M681.64,414.1h-11.06v-2.49c0-2.53-0.6-4.72-1.79-6.56c-1.19-1.84-3.2-2.77-6.02-2.77c-1.52,0-2.75,0.29-3.69,0.87 c-0.94,0.58-1.7,1.3-2.28,2.17c-0.58,0.94-0.98,2.01-1.19,3.2c-0.21,1.19-0.32,2.44-0.32,3.74c0,1.52,0.05,2.78,0.16,3.79 c0.11,1.01,0.38,1.92,0.81,2.71c0.43,0.8,1.07,1.48,1.9,2.06c0.83,0.58,1.97,1.16,3.41,1.73l8.46,3.36 c2.46,0.94,4.45,2.04,5.96,3.31c1.52,1.27,2.71,2.73,3.58,4.39c0.79,1.73,1.34,3.71,1.62,5.91c0.29,2.2,0.43,4.72,0.43,7.53 c0,3.25-0.33,6.27-0.98,9.05c-0.65,2.78-1.7,5.15-3.14,7.1c-1.52,2.02-3.5,3.62-5.96,4.77c-2.46,1.16-5.46,1.74-9,1.74 c-2.68,0-5.17-0.47-7.48-1.41c-2.32-0.94-4.3-2.24-5.96-3.9c-1.66-1.66-2.98-3.59-3.96-5.8c-0.98-2.2-1.46-4.61-1.46-7.21v-4.12 h11.06v3.47c0,2.02,0.6,3.85,1.79,5.47c1.19,1.62,3.2,2.44,6.02,2.44c1.88,0,3.34-0.27,4.39-0.82c1.05-0.54,1.86-1.32,2.44-2.33 c0.58-1.01,0.92-2.22,1.03-3.63c0.11-1.41,0.16-2.98,0.16-4.72c0-2.02-0.07-3.69-0.22-4.99c-0.15-1.3-0.43-2.35-0.87-3.14 c-0.51-0.79-1.17-1.44-2-1.95c-0.83-0.51-1.93-1.05-3.31-1.63l-7.91-3.25c-4.77-1.95-7.97-4.53-9.59-7.75 c-1.62-3.22-2.44-7.25-2.44-12.09c0-2.89,0.39-5.64,1.19-8.24c0.79-2.6,1.99-4.84,3.58-6.72c1.52-1.88,3.45-3.38,5.8-4.5 c2.35-1.12,5.15-1.68,8.4-1.68c2.74,0,5.26,0.51,7.53,1.52c2.28,1.01,4.24,2.35,5.91,4.01c3.32,3.47,4.99,7.44,4.99,11.93V414.1z"></path> <path d="M786.36,414.1H775.3v-2.49c0-2.53-0.6-4.72-1.79-6.56c-1.19-1.84-3.2-2.77-6.02-2.77c-1.52,0-2.75,0.29-3.69,0.87 c-0.94,0.58-1.7,1.3-2.28,2.17c-0.58,0.94-0.98,2.01-1.19,3.2c-0.21,1.19-0.32,2.44-0.32,3.74c0,1.52,0.05,2.78,0.16,3.79 c0.11,1.01,0.38,1.92,0.81,2.71c0.43,0.8,1.07,1.48,1.9,2.06c0.83,0.58,1.97,1.16,3.41,1.73l8.46,3.36 c2.46,0.94,4.45,2.04,5.96,3.31c1.52,1.27,2.71,2.73,3.58,4.39c0.79,1.73,1.34,3.71,1.62,5.91c0.29,2.2,0.43,4.72,0.43,7.53 c0,3.25-0.33,6.27-0.98,9.05c-0.65,2.78-1.7,5.15-3.14,7.1c-1.52,2.02-3.5,3.62-5.96,4.77c-2.46,1.16-5.46,1.74-9,1.74 c-2.68,0-5.17-0.47-7.48-1.41c-2.32-0.94-4.3-2.24-5.96-3.9c-1.66-1.66-2.98-3.59-3.96-5.8c-0.98-2.2-1.46-4.61-1.46-7.21v-4.12 h11.06v3.47c0,2.02,0.6,3.85,1.79,5.47c1.19,1.62,3.2,2.44,6.02,2.44c1.88,0,3.34-0.27,4.39-0.82c1.05-0.54,1.86-1.32,2.44-2.33 c0.58-1.01,0.92-2.22,1.03-3.63c0.11-1.41,0.16-2.98,0.16-4.72c0-2.02-0.07-3.69-0.22-4.99c-0.15-1.3-0.43-2.35-0.87-3.14 c-0.51-0.79-1.17-1.44-2-1.95c-0.83-0.51-1.93-1.05-3.31-1.63l-7.91-3.25c-4.77-1.95-7.97-4.53-9.59-7.75 c-1.62-3.22-2.44-7.25-2.44-12.09c0-2.89,0.39-5.64,1.19-8.24c0.79-2.6,1.99-4.84,3.58-6.72c1.52-1.88,3.45-3.38,5.8-4.5 c2.35-1.12,5.15-1.68,8.4-1.68c2.74,0,5.26,0.51,7.53,1.52c2.28,1.01,4.24,2.35,5.91,4.01c3.32,3.47,4.99,7.44,4.99,11.93V414.1z"></path> </g> <polygon points="325.96,328.16 325.96,175.97 297.15,147.17 297.15,356.97 415.32,356.97 386.52,328.16 "></polygon> <polygon points="299.63,115.75 328.43,144.56 388.99,144.56 388.99,296.75 417.8,325.55 417.8,115.75 "></polygon> <g> <path d="M870.49,149.56c0,9.84-7.73,17.57-17.78,17.57c-9.95,0-17.89-7.73-17.89-17.57c0-9.63,7.94-17.36,17.89-17.36 C862.77,132.2,870.49,139.93,870.49,149.56z M839.27,149.56c0,7.73,5.71,13.86,13.55,13.86c7.62,0,13.23-6.14,13.23-13.76 c0-7.73-5.61-13.97-13.33-13.97C844.99,135.69,839.27,141.94,839.27,149.56z M849.96,158.66h-4.02V141.3 c1.59-0.32,3.81-0.53,6.67-0.53c3.28,0,4.76,0.53,6.03,1.27c0.95,0.74,1.69,2.12,1.69,3.81c0,1.9-1.48,3.39-3.6,4.02v0.21 c1.69,0.64,2.65,1.91,3.17,4.23c0.53,2.65,0.85,3.7,1.27,4.34h-4.34c-0.53-0.64-0.85-2.22-1.38-4.23c-0.32-1.9-1.38-2.75-3.6-2.75 h-1.9V158.66z M850.07,148.82h1.91c2.22,0,4.02-0.74,4.02-2.54c0-1.59-1.16-2.65-3.7-2.65c-1.06,0-1.8,0.11-2.22,0.21V148.82z"></path> </g> </g> </svg> 